<svg width="70" height="35" viewBox="0 0 70 35" fill="none" xmlns="http://www.w3.org/2000/svg">
<path d="M0 3C0 1.34315 1.34315 0 3 0H67C68.6569 0 70 1.34315 70 3V22C70 23.6569 68.6569 25 67 25H51.3024C49.2151 25 47.7658 27.0786 48.4874 29.0371L50.5 34.5C50.312 33.9897 49.9503 33.5619 49.4784 33.2916L35.6927 25.3967C35.2388 25.1367 34.7248 25 34.2018 25H3C1.34315 25 0 23.6569 0 22V3Z" fill="#4C4949"/>
<path d="M14.29 7.178H25.966V8.536H14.29V7.178ZM14.808 17.496H25.518V18.868H14.808V17.496ZM17.216 9.138H22.928V10.314H17.216V9.138ZM17.216 10.93H22.928V12.106H17.216V10.93ZM13.548 12.722H26.638V14.094H13.548V12.722ZM16.726 15.27H23.488V16.586H16.726V15.27ZM16.222 6.114H17.916V13.478H16.222V6.114ZM22.326 6.128H24.034V13.478H22.326V6.128ZM19.204 14.388H20.926V18.294H19.204V14.388ZM17.09 13.114L18.49 13.632C17.594 15.116 16.082 16.432 14.486 17.146C14.248 16.754 13.772 16.166 13.422 15.858C14.878 15.326 16.348 14.248 17.09 13.114ZM23.166 13.114C23.908 14.192 25.35 15.2 26.792 15.718C26.428 16.026 25.938 16.628 25.686 17.02C24.174 16.348 22.718 15.018 21.836 13.618L23.166 13.114ZM29.914 7.248L30.782 6.114C31.51 6.366 32.476 6.828 32.966 7.192L32.056 8.452C31.594 8.074 30.642 7.556 29.914 7.248ZM28.892 9.53L29.746 8.396C30.46 8.648 31.44 9.096 31.944 9.432L31.062 10.692C30.586 10.342 29.62 9.838 28.892 9.53ZM29.256 13.52C30.026 12.862 31.146 11.742 32.112 10.664L32.994 11.784C32.196 12.764 31.314 13.814 30.432 14.78L29.256 13.52ZM34.562 14.402H36.298V19.26H34.562V14.402ZM29.13 15.34H41.926V16.838H29.13V15.34ZM34.604 6.044L36.228 6.534C35.458 8.172 34.212 9.782 33.022 10.804C32.742 10.482 32.098 9.894 31.72 9.614C32.882 8.774 33.988 7.416 34.604 6.044ZM33.596 8.732L35.234 7.612V13.52H33.596V8.732ZM34.436 7.584H41.352V8.886H33.652L34.436 7.584ZM33.596 13.142H41.688V14.458H33.596V13.142ZM34.226 9.53H40.862V10.706H34.226V9.53ZM34.226 11.322H40.876V12.498H34.226V11.322ZM36.872 8.158H38.468V13.66H36.872V8.158ZM37.642 6.128L39.462 6.436C38.986 7.234 38.454 8.018 38.048 8.536L36.676 8.2C37.04 7.612 37.432 6.758 37.642 6.128ZM48.982 7.388H57.312V8.83H48.982V7.388ZM49.416 17.16H57.382V18.616H49.416V17.16ZM52.664 6.128L54.344 6.212C54.232 7.57 54.036 9.222 53.854 10.286H52.314C52.468 9.194 52.608 7.472 52.664 6.128ZM52.608 12.652V13.38H55.1V12.652H52.608ZM52.608 14.514V15.242H55.1V14.514H52.608ZM52.608 10.818V11.532H55.1V10.818H52.608ZM51.04 9.614H56.724V16.446H51.04V9.614ZM48.646 10.426H50.2V19.26H48.646V10.426ZM47.218 6.17L48.8 6.66C47.89 9.054 46.434 11.574 44.908 13.17C44.754 12.764 44.306 11.84 44.012 11.434C45.286 10.16 46.504 8.172 47.218 6.17ZM45.86 10.034L47.456 8.438L47.47 8.452V19.246H45.86V10.034Z" fill="white"/>
</svg>
