<svg width="20" height="40" viewBox="0 0 20 40" fill="none" xmlns="http://www.w3.org/2000/svg">
<path d="M18.3033 4.28589H16.6292C16.5154 4.28589 16.4082 4.34169 16.3413 4.43321L9.99976 13.1743L3.65824 4.43321C3.59128 4.34169 3.48413 4.28589 3.3703 4.28589H1.69619C1.5511 4.28589 1.46628 4.45107 1.5511 4.56937L9.42163 15.4198C9.70735 15.8127 10.2922 15.8127 10.5757 15.4198L18.4462 4.56937C18.5332 4.45107 18.4484 4.28589 18.3033 4.28589Z" fill="white"/>
<path d="M18.3033 14.2859H16.6292C16.5154 14.2859 16.4082 14.3417 16.3413 14.4332L9.99976 23.1743L3.65824 14.4332C3.59128 14.3417 3.48413 14.2859 3.3703 14.2859H1.69619C1.5511 14.2859 1.46628 14.4511 1.5511 14.5694L9.42163 25.4198C9.70735 25.8127 10.2922 25.8127 10.5757 25.4198L18.4462 14.5694C18.5332 14.4511 18.4484 14.2859 18.3033 14.2859Z" fill="white"/>
<path d="M18.3033 24.2859H16.6292C16.5154 24.2859 16.4082 24.3417 16.3413 24.4332L9.99976 33.1743L3.65824 24.4332C3.59128 24.3417 3.48413 24.2859 3.3703 24.2859H1.69619C1.5511 24.2859 1.46628 24.4511 1.5511 24.5694L9.42163 35.4198C9.70735 35.8127 10.2922 35.8127 10.5757 35.4198L18.4462 24.5694C18.5332 24.4511 18.4484 24.2859 18.3033 24.2859Z" fill="white"/>
</svg>
