<svg width="430" height="61" viewBox="0 0 430 61" fill="none" xmlns="http://www.w3.org/2000/svg">
<rect width="500" height="61" fill="white"/>
<path d="M59.1172 39.0586C58.2839 39.0586 57.5352 38.8958 56.8711 38.5703C56.207 38.2318 55.6667 37.6849 55.25 36.9297C55.0807 36.6302 54.9375 36.3177 54.8203 35.9922C54.7161 35.6536 54.6641 35.3086 54.6641 34.957C54.6641 34.293 54.9896 33.9609 55.6406 33.9609C55.9401 33.9609 56.1615 34.0456 56.3047 34.2148C56.4479 34.3711 56.5586 34.5794 56.6367 34.8398C56.7148 35.1003 56.793 35.3802 56.8711 35.6797C56.9492 35.9661 57.0664 36.2396 57.2227 36.5C57.3789 36.7604 57.6068 36.9753 57.9062 37.1445C58.2188 37.3008 58.6354 37.3789 59.1562 37.3789C59.8724 37.3789 60.4323 37.1315 60.8359 36.6367C61.2396 36.1289 61.4414 35.5365 61.4414 34.8594C61.4414 34.3125 61.3177 33.8568 61.0703 33.4922C60.8359 33.1276 60.5234 32.8216 60.1328 32.5742C59.7422 32.3138 59.3125 32.0794 58.8438 31.8711C58.375 31.6628 57.8997 31.4479 57.418 31.2266C56.9492 30.9922 56.5195 30.7253 56.1289 30.4258C55.7383 30.1133 55.4193 29.7292 55.1719 29.2734C54.9375 28.8047 54.8203 28.2318 54.8203 27.5547C54.8203 26.7604 54.9961 26.0833 55.3477 25.5234C55.6992 24.9505 56.1745 24.5143 56.7734 24.2148C57.3854 23.9023 58.069 23.7461 58.8242 23.7461C59.5013 23.7461 60.1589 23.8893 60.7969 24.1758C61.4349 24.4492 61.9622 24.8529 62.3789 25.3867C62.8086 25.9076 63.0234 26.5391 63.0234 27.2812C63.0234 27.9062 62.7109 28.2188 62.0859 28.2188C61.7734 28.2188 61.5391 28.1276 61.3828 27.9453C61.2396 27.75 61.1159 27.5156 61.0117 27.2422C60.9206 26.9557 60.8034 26.6758 60.6602 26.4023C60.5299 26.1289 60.3216 25.901 60.0352 25.7188C59.7487 25.5234 59.3385 25.4258 58.8047 25.4258C58.1146 25.4258 57.5807 25.5951 57.2031 25.9336C56.8385 26.2721 56.6562 26.793 56.6562 27.4961C56.6562 27.9518 56.7734 28.3359 57.0078 28.6484C57.2552 28.9479 57.5742 29.2148 57.9648 29.4492C58.3685 29.6706 58.8047 29.8854 59.2734 30.0938C59.7552 30.2891 60.2305 30.5104 60.6992 30.7578C61.181 30.9922 61.6172 31.2852 62.0078 31.6367C62.4115 31.9753 62.7305 32.3984 62.9648 32.9062C63.2122 33.4141 63.3359 34.0391 63.3359 34.7812C63.3359 36.0833 62.9583 37.125 62.2031 37.9062C61.4609 38.6745 60.4323 39.0586 59.1172 39.0586ZM68.3477 39.0586C68.1003 39.0586 67.8984 39 67.7422 38.8828C67.5859 38.7656 67.5078 38.5768 67.5078 38.3164C67.5078 38.2904 67.5078 38.2383 67.5078 38.1602C67.5208 38.082 67.5339 38.0365 67.5469 38.0234L70.7891 24.8789C70.8672 24.5404 70.9974 24.2669 71.1797 24.0586C71.375 23.8503 71.6549 23.7461 72.0195 23.7461C72.3971 23.7461 72.6771 23.8633 72.8594 24.0977C73.0547 24.332 73.1914 24.6185 73.2695 24.957L76.4727 38.0234C76.4857 38.0365 76.4922 38.082 76.4922 38.1602C76.5052 38.2383 76.5117 38.2904 76.5117 38.3164C76.5117 38.5768 76.4336 38.7656 76.2773 38.8828C76.1341 39 75.9323 39.0586 75.6719 39.0586C75.4245 39.0586 75.2292 38.9805 75.0859 38.8242C74.9427 38.668 74.8451 38.4792 74.793 38.2578L73.9922 34.8203H70.0469L69.2266 38.2578C69.1745 38.4792 69.0768 38.668 68.9336 38.8242C68.7904 38.9805 68.5951 39.0586 68.3477 39.0586ZM70.418 33.2188H73.6016L72.0195 26.5L70.418 33.2188ZM81.6992 39.0586C81.3607 39.0586 81.1198 38.9544 80.9766 38.7461C80.8464 38.5247 80.7812 38.2578 80.7812 37.9453V24.8594C80.7812 24.5469 80.8464 24.2865 80.9766 24.0781C81.1198 23.8568 81.3607 23.7461 81.6992 23.7461C82.0378 23.7461 82.2721 23.8568 82.4023 24.0781C82.5456 24.2865 82.6172 24.5469 82.6172 24.8594V31.2266L87.3633 24.2539C87.4544 24.1107 87.5651 23.9935 87.6953 23.9023C87.8385 23.7982 87.9948 23.7461 88.1641 23.7461C88.737 23.7461 89.0234 24.0195 89.0234 24.5664C89.0234 24.6706 88.9909 24.7812 88.9258 24.8984C88.8737 25.0026 88.8151 25.0938 88.75 25.1719L85.4492 29.8398L89.2969 37.5742C89.349 37.6654 89.388 37.7695 89.4141 37.8867C89.4531 37.9909 89.4727 38.0951 89.4727 38.1992C89.4727 38.4857 89.388 38.7005 89.2188 38.8438C89.0625 38.987 88.8411 39.0586 88.5547 39.0586C88.3203 39.0586 88.1315 38.987 87.9883 38.8438C87.8451 38.7005 87.7214 38.5312 87.6172 38.3359L84.2969 31.4609L82.6172 33.8242V37.9453C82.6172 38.2578 82.5456 38.5247 82.4023 38.7461C82.2721 38.9544 82.0378 39.0586 81.6992 39.0586ZM97.9805 39.0586C97.6159 39.0586 97.362 38.9479 97.2188 38.7266C97.0885 38.4922 97.0234 38.2122 97.0234 37.8867V24.918C97.0234 24.5794 97.0951 24.2995 97.2383 24.0781C97.3815 23.8568 97.6354 23.7461 98 23.7461C98.3646 23.7461 98.612 23.8568 98.7422 24.0781C98.8854 24.2995 98.957 24.5794 98.957 24.918V37.8867C98.957 38.2122 98.8854 38.4922 98.7422 38.7266C98.599 38.9479 98.3451 39.0586 97.9805 39.0586Z" fill="#FFBD59"/>
<path d="M110.98 39.0586C110.629 39.0586 110.388 38.9479 110.258 38.7266C110.128 38.5052 110.062 38.2383 110.062 37.9258V32.5156L106.664 25.0742C106.625 24.9831 106.586 24.8919 106.547 24.8008C106.521 24.6966 106.508 24.599 106.508 24.5078C106.508 24.2344 106.586 24.0391 106.742 23.9219C106.898 23.8047 107.1 23.7461 107.348 23.7461C107.569 23.7461 107.745 23.8112 107.875 23.9414C108.018 24.0716 108.135 24.2279 108.227 24.4102L111 30.3477L113.754 24.4297C113.845 24.2474 113.962 24.0911 114.105 23.9609C114.249 23.8177 114.424 23.7461 114.633 23.7461C114.893 23.7461 115.102 23.8047 115.258 23.9219C115.414 24.0391 115.492 24.2344 115.492 24.5078C115.492 24.599 115.473 24.6901 115.434 24.7812C115.408 24.8724 115.375 24.9635 115.336 25.0547L111.918 32.5547V37.9258C111.918 38.2513 111.846 38.5247 111.703 38.7461C111.573 38.9544 111.332 39.0586 110.98 39.0586ZM124.02 39.0586C123.238 39.0586 122.581 38.8958 122.047 38.5703C121.526 38.2318 121.103 37.7891 120.777 37.2422C120.465 36.6823 120.224 36.0703 120.055 35.4062C119.898 34.7292 119.794 34.0456 119.742 33.3555C119.69 32.6654 119.664 32.0273 119.664 31.4414C119.664 30.8424 119.69 30.1979 119.742 29.5078C119.807 28.8047 119.918 28.1146 120.074 27.4375C120.243 26.7604 120.491 26.1484 120.816 25.6016C121.142 25.0417 121.572 24.5924 122.105 24.2539C122.639 23.9154 123.303 23.7461 124.098 23.7461C124.866 23.7461 125.504 23.9154 126.012 24.2539C126.533 24.5924 126.949 25.0417 127.262 25.6016C127.574 26.1615 127.809 26.7799 127.965 27.457C128.121 28.1341 128.225 28.8177 128.277 29.5078C128.329 30.1849 128.355 30.8099 128.355 31.3828C128.355 31.9688 128.329 32.6068 128.277 33.2969C128.225 33.987 128.115 34.6706 127.945 35.3477C127.789 36.0247 127.548 36.6432 127.223 37.2031C126.91 37.763 126.493 38.2122 125.973 38.5508C125.452 38.8893 124.801 39.0586 124.02 39.0586ZM124 37.3203C124.729 37.3203 125.276 37.0078 125.641 36.3828C125.888 35.9661 126.064 35.4518 126.168 34.8398C126.285 34.2148 126.363 33.5833 126.402 32.9453C126.441 32.3073 126.461 31.7604 126.461 31.3047C126.461 30.9792 126.448 30.5755 126.422 30.0938C126.409 29.612 126.363 29.1042 126.285 28.5703C126.207 28.0365 126.077 27.5352 125.895 27.0664C125.725 26.5977 125.484 26.2201 125.172 25.9336C124.859 25.6341 124.462 25.4844 123.98 25.4844C123.512 25.4844 123.128 25.6276 122.828 25.9141C122.529 26.1875 122.288 26.5456 122.105 26.9883C121.936 27.431 121.812 27.9128 121.734 28.4336C121.656 28.9414 121.604 29.4297 121.578 29.8984C121.565 30.3672 121.559 30.7578 121.559 31.0703C121.559 31.5391 121.572 32.1055 121.598 32.7695C121.637 33.4206 121.708 34.0651 121.812 34.7031C121.93 35.3411 122.099 35.875 122.32 36.3047C122.672 36.9818 123.232 37.3203 124 37.3203ZM133.523 39.0586C133.237 39.0586 133.035 38.9674 132.918 38.7852C132.801 38.6029 132.742 38.3815 132.742 38.1211V25.4062C132.742 24.9375 132.84 24.5469 133.035 24.2344C133.23 23.9089 133.589 23.7461 134.109 23.7461C134.526 23.7461 134.826 23.8763 135.008 24.1367C135.203 24.3971 135.327 24.7161 135.379 25.0938L137 34.9961L138.621 25.0938C138.686 24.7161 138.81 24.3971 138.992 24.1367C139.188 23.8763 139.493 23.7461 139.91 23.7461C140.431 23.7461 140.783 23.9089 140.965 24.2344C141.16 24.5599 141.258 24.9505 141.258 25.4062V38.1211C141.258 38.3815 141.199 38.6029 141.082 38.7852C140.978 38.9674 140.776 39.0586 140.477 39.0586C140.19 39.0586 139.988 38.9674 139.871 38.7852C139.754 38.6029 139.695 38.3815 139.695 38.1211V26.1484L137.781 38.2578C137.742 38.4661 137.664 38.6549 137.547 38.8242C137.43 38.9805 137.247 39.0586 137 39.0586C136.753 39.0586 136.57 38.987 136.453 38.8438C136.349 38.6875 136.277 38.4987 136.238 38.2773L134.305 26.1484V38.1211C134.305 38.3815 134.246 38.6029 134.129 38.7852C134.025 38.9674 133.823 39.0586 133.523 39.0586ZM149.98 39.0586C149.616 39.0586 149.362 38.9479 149.219 38.7266C149.089 38.4922 149.023 38.2122 149.023 37.8867V24.918C149.023 24.5794 149.095 24.2995 149.238 24.0781C149.382 23.8568 149.635 23.7461 150 23.7461C150.365 23.7461 150.612 23.8568 150.742 24.0781C150.885 24.2995 150.957 24.5794 150.957 24.918V37.8867C150.957 38.2122 150.885 38.4922 150.742 38.7266C150.599 38.9479 150.345 39.0586 149.98 39.0586Z" fill="black"/>
<rect x="9" y="31.2131" width="30" height="30" rx="10" transform="rotate(-45 9 31.2131)" fill="black" fill-opacity="0.85"/>
<path d="M35.4932 31.1201C35.2744 31.1201 35.0898 31.0449 34.9395 30.8945C34.7936 30.7396 34.7207 30.555 34.7207 30.3408C34.7207 30.195 34.7572 30.0651 34.8301 29.9512C34.903 29.8372 34.9987 29.7461 35.1172 29.6777C35.2357 29.6094 35.3656 29.5752 35.5068 29.5752C35.6481 29.5752 35.7757 29.6117 35.8896 29.6846C36.0036 29.7529 36.0947 29.8464 36.1631 29.9648C36.2314 30.0788 36.2656 30.2064 36.2656 30.3477C36.2656 30.5618 36.1904 30.7441 36.04 30.8945C35.8896 31.0449 35.7074 31.1201 35.4932 31.1201Z" fill="#FFBD59"/>
<path d="M24.4932 33.1201C24.2744 33.1201 24.0898 33.0449 23.9395 32.8945C23.7936 32.7396 23.7207 32.555 23.7207 32.3408C23.7207 32.195 23.7572 32.0651 23.8301 31.9512C23.903 31.8372 23.9987 31.7461 24.1172 31.6777C24.2357 31.6094 24.3656 31.5752 24.5068 31.5752C24.6481 31.5752 24.7757 31.6117 24.8896 31.6846C25.0036 31.7529 25.0947 31.8464 25.1631 31.9648C25.2314 32.0788 25.2656 32.2064 25.2656 32.3477C25.2656 32.5618 25.1904 32.7441 25.04 32.8945C24.8896 33.0449 24.7074 33.1201 24.4932 33.1201Z" fill="white"/>
<path d="M30.1172 39.0586C29.2839 39.0586 28.5352 38.8958 27.8711 38.5703C27.207 38.2318 26.6667 37.6849 26.25 36.9297C26.0807 36.6302 25.9375 36.3177 25.8203 35.9922C25.7161 35.6536 25.6641 35.3086 25.6641 34.957C25.6641 34.293 25.9896 33.9609 26.6406 33.9609C26.9401 33.9609 27.1615 34.0456 27.3047 34.2148C27.4479 34.3711 27.5586 34.5794 27.6367 34.8398C27.7148 35.1003 27.793 35.3802 27.8711 35.6797C27.9492 35.9661 28.0664 36.2396 28.2227 36.5C28.3789 36.7604 28.6068 36.9753 28.9062 37.1445C29.2188 37.3008 29.6354 37.3789 30.1562 37.3789C30.8724 37.3789 31.4323 37.1315 31.8359 36.6367C32.2396 36.1289 32.4414 35.5365 32.4414 34.8594C32.4414 34.3125 32.3177 33.8568 32.0703 33.4922C31.8359 33.1276 31.5234 32.8216 31.1328 32.5742C30.7422 32.3138 30.3125 32.0794 29.8438 31.8711C29.375 31.6628 28.8997 31.4479 28.418 31.2266C27.9492 30.9922 27.5195 30.7253 27.1289 30.4258C26.7383 30.1133 26.4193 29.7292 26.1719 29.2734C25.9375 28.8047 25.8203 28.2318 25.8203 27.5547C25.8203 26.7604 25.9961 26.0833 26.3477 25.5234C26.6992 24.9505 27.1745 24.5143 27.7734 24.2148C28.3854 23.9023 29.069 23.7461 29.8242 23.7461C30.5013 23.7461 31.1589 23.8893 31.7969 24.1758C32.4349 24.4492 32.9622 24.8529 33.3789 25.3867C33.8086 25.9076 34.0234 26.5391 34.0234 27.2812C34.0234 27.9062 33.7109 28.2188 33.0859 28.2188C32.7734 28.2188 32.5391 28.1276 32.3828 27.9453C32.2396 27.75 32.1159 27.5156 32.0117 27.2422C31.9206 26.9557 31.8034 26.6758 31.6602 26.4023C31.5299 26.1289 31.3216 25.901 31.0352 25.7188C30.7487 25.5234 30.3385 25.4258 29.8047 25.4258C29.1146 25.4258 28.5807 25.5951 28.2031 25.9336C27.8385 26.2721 27.6562 26.793 27.6562 27.4961C27.6562 27.9518 27.7734 28.3359 28.0078 28.6484C28.2552 28.9479 28.5742 29.2148 28.9648 29.4492C29.3685 29.6706 29.8047 29.8854 30.2734 30.0938C30.7552 30.2891 31.2305 30.5104 31.6992 30.7578C32.181 30.9922 32.6172 31.2852 33.0078 31.6367C33.4115 31.9753 33.7305 32.3984 33.9648 32.9062C34.2122 33.4141 34.3359 34.0391 34.3359 34.7812C34.3359 36.0833 33.9583 37.125 33.2031 37.9062C32.4609 38.6745 31.4323 39.0586 30.1172 39.0586Z" fill="white"/>
</svg>
