<svg width="46" height="46" viewBox="0 0 46 46" fill="none" xmlns="http://www.w3.org/2000/svg">
<path d="M7.71918 6.24414H27.6277V9.20009C28.638 9.38858 29.6109 9.70528 30.5461 10.1125V4.93179C30.5461 2.20926 28.3288 0 25.6143 0H9.72521C7.01085 0 4.80078 2.20926 4.80078 4.93179V41.0682C4.80078 43.7907 7.01085 46 9.7253 46H25.6143C28.3288 46 30.5461 43.7907 30.5461 41.0682V36.2947H7.71918V6.24414ZM17.6704 39.0938C18.7722 39.0938 19.6677 39.9893 19.6677 41.0909C19.6677 42.1919 18.7722 43.0889 17.6704 43.0889C16.5688 43.0889 15.6733 42.192 15.6733 41.0909C15.6733 39.9893 16.5689 39.0938 17.6704 39.0938Z" fill="#F1B669"/>
<path d="M40.3251 34.1037C40.3251 34.1037 36.7424 30.9703 35.8852 30.1152C34.6274 28.8633 34.1252 28.2602 34.5685 27.2433C36.5104 23.2828 35.8388 18.3664 32.5447 15.0731C28.4031 10.9307 21.6862 10.9307 17.5445 15.0731C13.4029 19.2162 13.4029 25.9309 17.5445 30.0734C20.8371 33.3659 25.7564 34.0375 29.7139 32.0963C30.7317 31.6529 31.3355 32.1552 32.5868 33.4137C33.4424 34.2701 36.5753 37.8529 36.5753 37.8529C38.1999 39.4775 39.4496 38.479 40.2014 37.7285C40.9503 36.978 41.9497 35.7283 40.3251 34.1037ZM29.3878 26.9155C26.9892 29.3126 23.1009 29.3126 20.7017 26.9155C18.3046 24.5178 18.3046 20.6279 20.7017 18.2316C23.1009 15.8338 26.9892 15.8338 29.3878 18.2316C31.7848 20.6279 31.7848 24.5178 29.3878 26.9155Z" fill="#F1B669"/>
</svg>
