<svg width="254" height="191" viewBox="0 0 254 191" fill="none" xmlns="http://www.w3.org/2000/svg">
<path d="M12.615 65.459C12.543 65.612 12.489 65.81 12.453 65.99C12.255 66.908 11.832 68.33 11.103 69.293C10.284 70.355 9.159 71.219 7.53 71.732L6.756 70.886C8.52 70.454 9.528 69.68 10.275 68.744C10.896 67.952 11.274 66.8 11.4 65.981C10.869 65.981 7.557 65.981 6.972 65.981C6.594 65.981 6.234 65.999 6 66.008V65.009C6.261 65.036 6.684 65.072 6.981 65.072C7.557 65.072 10.887 65.072 11.337 65.072C11.49 65.072 11.715 65.063 11.922 65.018L12.615 65.459ZM18.7875 65.9C18.7605 66.107 18.7515 66.35 18.7515 66.575C18.7785 67.538 18.8235 70.031 18.8415 71.381C18.8505 71.804 18.5355 72.074 18.0765 72.074C17.6895 72.074 17.1135 72.047 16.7355 72.029L16.6815 71.21C17.0505 71.264 17.5005 71.291 17.7525 71.291C17.9235 71.291 17.9955 71.192 17.9955 71.021C17.9955 69.977 17.9595 67.538 17.9145 66.575C17.9145 66.377 17.8875 66.125 17.8515 65.9H18.7875ZM14.6115 67.178C14.8275 67.205 15.1245 67.223 15.3495 67.223C15.7815 67.223 19.5975 67.223 19.9575 67.223C20.1645 67.223 20.4795 67.196 20.6235 67.178V68.051C20.4435 68.042 20.1735 68.033 19.9935 68.033C19.6875 68.033 15.7185 68.033 15.3675 68.033C15.1155 68.033 14.8455 68.051 14.6115 68.069V67.178ZM14.3145 70.643C15.7635 69.959 17.2125 68.69 17.7255 67.772L18.1845 67.781L18.2025 68.465C17.7255 69.329 16.2585 70.652 14.9355 71.345L14.3145 70.643ZM22.8818 65.189C23.2418 65.198 23.5208 65.207 23.7458 65.207C24.3038 65.207 28.1018 65.207 28.6328 65.207C28.8398 65.207 29.1728 65.207 29.4698 65.189C29.4518 65.432 29.4518 65.72 29.4518 65.963C29.4518 66.44 29.4518 69.959 29.4518 70.391C29.4518 70.706 29.4608 71.48 29.4698 71.552H28.4888C28.4888 71.48 28.5068 70.886 28.5068 70.454C28.5068 70.04 28.5068 66.107 28.5068 66.107H23.8358C23.8358 66.107 23.8358 70.013 23.8358 70.454C23.8358 70.814 23.8448 71.462 23.8448 71.552H22.8728C22.8728 71.462 22.8998 70.751 22.8998 70.382C22.8998 69.941 22.8998 66.386 22.8998 65.963C22.8998 65.738 22.8998 65.423 22.8818 65.189ZM28.8668 70.148V71.048H23.3678V70.148H28.8668ZM39.0748 65.432C39.0298 65.54 38.9578 65.828 38.9398 65.936C38.7778 66.944 38.5798 68.24 37.9048 69.284C37.1668 70.445 35.9428 71.354 34.4938 71.84L33.7108 71.048C34.9888 70.715 36.3208 69.95 37.0408 68.807C37.5268 68.042 37.7968 66.953 37.8868 65.936C37.3468 65.936 33.8458 65.936 33.1978 65.936C33.1978 66.197 33.1978 67.286 33.1978 67.601C33.1978 67.736 33.2068 68.006 33.2248 68.249H32.1898C32.2168 68.006 32.2258 67.808 32.2258 67.601C32.2258 67.286 32.2258 66.089 32.2258 65.693C32.2258 65.468 32.2168 65.234 32.1898 65.027C32.4508 65.045 32.8108 65.054 33.2158 65.054C33.5398 65.054 37.1308 65.054 37.6978 65.054C37.9408 65.054 38.1928 65.036 38.3908 65L39.0748 65.432ZM41.1617 67.43C41.4587 67.457 42.0077 67.484 42.5027 67.484C43.3397 67.484 46.6607 67.484 47.3897 67.484C47.8307 67.484 48.1817 67.448 48.3977 67.43V68.546C48.1997 68.537 47.7857 68.501 47.3987 68.501C46.6607 68.501 43.3397 68.501 42.5027 68.501C41.9987 68.501 41.4677 68.519 41.1617 68.546V67.43ZM17.6966 78.523H21.2516V79.333H17.6966V78.523ZM17.3276 81.088H21.5756V81.889H17.3276V81.088ZM18.5426 81.52L19.4606 81.691C19.2176 82.951 18.8576 84.472 18.5516 85.426L17.7866 85.255C18.0836 84.274 18.3986 82.681 18.5426 81.52ZM17.0936 85.12C18.0836 85.057 19.6226 84.949 21.1076 84.841V85.606C19.7396 85.741 18.2906 85.867 17.2466 85.957L17.0936 85.12ZM19.8476 83.32L20.5766 83.023C21.0716 83.923 21.5036 85.093 21.6746 85.876L20.8826 86.191C20.7476 85.408 20.3156 84.22 19.8476 83.32ZM13.3766 78.775H17.2646V79.513H13.3766V78.775ZM13.2506 83.941H17.3546V84.697H13.2506V83.941ZM14.9336 77.857H15.7346V80.404H14.9336V77.857ZM15.0146 80.404H15.6536V82.969H15.7256V86.2H14.9336V82.969H15.0146V80.404ZM14.2496 81.997V82.699H16.4456V81.997H14.2496ZM14.2496 80.728V81.421H16.4456V80.728H14.2496ZM13.5836 80.116H17.1386V83.311H13.5836V80.116ZM27.3986 77.839L28.1996 77.965C27.8216 78.901 27.2366 79.846 26.2466 80.602C26.1206 80.422 25.8596 80.179 25.6796 80.071C26.5706 79.45 27.1286 78.586 27.3986 77.839ZM27.5246 78.523H29.3876V79.189H27.1196L27.5246 78.523ZM27.7586 80.44H28.3886C28.3256 81.367 28.1186 81.979 27.3086 82.348C27.2366 82.195 27.0566 81.979 26.9306 81.88C27.5696 81.61 27.7316 81.169 27.7586 80.44ZM28.8746 80.467H29.5136V81.367C29.5136 81.52 29.5316 81.538 29.6936 81.538C29.7656 81.538 30.0896 81.538 30.1796 81.538C30.2966 81.538 30.3326 81.52 30.3506 81.457C30.4676 81.547 30.7196 81.628 30.8996 81.664C30.8366 81.988 30.6476 82.096 30.2786 82.096C30.1616 82.096 29.7116 82.096 29.6036 82.096C29.0096 82.096 28.8746 81.943 28.8746 81.367V80.467ZM25.8326 83.257H31.4036V83.977H25.8326V83.257ZM29.0456 83.5C29.3876 84.571 30.1796 85.237 31.5386 85.471C31.3586 85.633 31.1516 85.966 31.0526 86.182C29.5226 85.831 28.7126 84.994 28.3076 83.59L29.0456 83.5ZM27.0116 79.972H30.5486V80.656H27.0116V82.951H26.2916V79.972H27.0116ZM30.3416 79.972H31.0796V82.933H30.3416V79.972ZM29.1086 78.523H29.2796L29.4056 78.487L29.9456 78.829C29.6936 79.378 29.2886 80.035 28.9646 80.458C28.8116 80.35 28.5596 80.197 28.3886 80.107C28.6586 79.711 28.9646 79.072 29.1086 78.667V78.523ZM28.2266 82.483H29.0096C28.8566 84.49 28.3976 85.651 25.9046 86.227C25.8326 86.029 25.6346 85.732 25.4816 85.57C27.7676 85.111 28.1096 84.175 28.2266 82.483ZM23.0426 82.456C23.7536 82.276 24.8156 81.961 25.8326 81.655L25.9496 82.429C25.0136 82.735 24.0236 83.041 23.2496 83.275L23.0426 82.456ZM23.1776 79.621H25.9226V80.404H23.1776V79.621ZM24.2306 77.857H25.0136V85.264C25.0136 85.696 24.9326 85.921 24.6806 86.047C24.4466 86.182 24.0776 86.209 23.5016 86.209C23.4746 86.002 23.3756 85.651 23.2676 85.417C23.6366 85.435 23.9696 85.435 24.0776 85.426C24.1856 85.426 24.2306 85.39 24.2306 85.264V77.857ZM36.7586 77.857H37.6316V79.117H36.7586V77.857ZM36.7586 83.05H37.6316V86.227H36.7586V83.05ZM33.1856 83.698H41.2676V84.481H33.1856V83.698ZM33.4736 78.802H41.0066V79.585H33.4736V78.802ZM40.2146 79.765L40.9616 80.143C40.5026 80.566 39.9446 80.98 39.5126 81.268L38.8916 80.917C39.3146 80.611 39.8906 80.134 40.2146 79.765ZM36.6416 79.378L37.3706 79.657C37.0196 80.125 36.6146 80.629 36.2906 80.962L35.7506 80.719C36.0476 80.35 36.4256 79.774 36.6416 79.378ZM37.9736 80.053L38.6396 80.368C37.9106 81.241 36.9296 82.276 36.1556 82.915L35.6516 82.627C36.4256 81.961 37.3976 80.863 37.9736 80.053ZM35.3366 80.755L35.7416 80.269C36.2546 80.575 36.9476 81.043 37.2806 81.367L36.8486 81.925C36.5336 81.592 35.8586 81.097 35.3366 80.755ZM35.2376 82.366C36.1196 82.339 37.4426 82.276 38.7476 82.213L38.7386 82.825C37.5236 82.924 36.2906 83.014 35.3546 83.077L35.2376 82.366ZM37.6766 81.646L38.2796 81.376C38.7026 81.88 39.1796 82.555 39.3596 83.014L38.7116 83.329C38.5406 82.87 38.0906 82.159 37.6766 81.646ZM33.1226 82.546C33.6986 82.339 34.5626 81.997 35.3996 81.655L35.5526 82.294C34.8596 82.627 34.1306 82.969 33.5366 83.23L33.1226 82.546ZM33.4196 80.341L33.9866 79.882C34.4726 80.143 35.1026 80.548 35.4086 80.836L34.8146 81.358C34.5266 81.061 33.9146 80.629 33.4196 80.341ZM38.7116 82.042L39.2966 81.565C39.9536 81.898 40.8356 82.411 41.2856 82.771L40.6646 83.302C40.2506 82.933 39.3866 82.393 38.7116 82.042Z" fill="#4C4949"/>
<path d="M225.164 74.3364H226.114V80.1464H225.164V74.3364ZM222.364 75.7164H228.824V76.5764H222.364V75.7164ZM226.334 76.0764C226.914 77.2264 228.034 78.3964 229.104 78.9964C228.894 79.1764 228.594 79.5164 228.434 79.7464C227.354 79.0264 226.254 77.6764 225.614 76.3464L226.334 76.0764ZM224.994 76.0064L225.734 76.2764C225.074 77.6664 223.894 79.0064 222.704 79.7264C222.554 79.4964 222.254 79.1564 222.044 78.9764C223.204 78.3864 224.384 77.1964 224.994 76.0064ZM223.974 72.1564V73.7764H227.354V72.1564H223.974ZM223.074 71.3164H228.304V74.6164H223.074V71.3164ZM221.924 70.8864L222.804 71.1664C222.134 72.8564 221.074 74.5864 219.974 75.7064C219.884 75.4864 219.624 74.9764 219.454 74.7564C220.424 73.8264 221.364 72.3664 221.924 70.8864ZM220.914 73.5464L221.804 72.6464L221.814 72.6564V80.1164H220.914V73.5464ZM233.664 76.6064H239.844V77.4864H233.664V76.6064ZM234.474 74.0464H238.464V74.9064H234.474V74.0464ZM236.354 75.7164H237.304V79.0864C237.304 79.5964 237.214 79.8564 236.834 79.9964C236.464 80.1364 235.894 80.1364 235.054 80.1364C235.014 79.8664 234.894 79.4964 234.774 79.2364C235.374 79.2564 235.964 79.2564 236.134 79.2464C236.304 79.2364 236.354 79.2064 236.354 79.0664V75.7164ZM238.224 74.0464H238.464L238.654 73.9964L239.254 74.4564C238.654 75.1464 237.794 75.9064 237.034 76.3864C236.914 76.2164 236.664 75.9564 236.514 75.8364C237.144 75.4264 237.884 74.7164 238.224 74.2264V74.0464ZM230.844 72.1664H239.674V73.0764H230.844V72.1664ZM234.024 70.8564L235.024 71.0964C234.304 73.4564 233.074 75.8364 231.004 77.2864C230.904 77.0264 230.674 76.6064 230.514 76.3764C232.334 75.1364 233.484 72.9064 234.024 70.8564ZM232.054 74.9764H233.004V80.1264H232.054V74.9764ZM245.734 70.8664H246.704V72.2664H245.734V70.8664ZM245.734 76.6364H246.704V80.1664H245.734V76.6364ZM241.764 77.3564H250.744V78.2264H241.764V77.3564ZM242.084 71.9164H250.454V72.7864H242.084V71.9164ZM249.574 72.9864L250.404 73.4064C249.894 73.8764 249.274 74.3364 248.794 74.6564L248.104 74.2664C248.574 73.9264 249.214 73.3964 249.574 72.9864ZM245.604 72.5564L246.414 72.8664C246.024 73.3864 245.574 73.9464 245.214 74.3164L244.614 74.0464C244.944 73.6364 245.364 72.9964 245.604 72.5564ZM247.084 73.3064L247.824 73.6564C247.014 74.6264 245.924 75.7764 245.064 76.4864L244.504 76.1664C245.364 75.4264 246.444 74.2064 247.084 73.3064ZM244.154 74.0864L244.604 73.5464C245.174 73.8864 245.944 74.4064 246.314 74.7664L245.834 75.3864C245.484 75.0164 244.734 74.4664 244.154 74.0864ZM244.044 75.8764C245.024 75.8464 246.494 75.7764 247.944 75.7064L247.934 76.3864C246.584 76.4964 245.214 76.5964 244.174 76.6664L244.044 75.8764ZM246.754 75.0764L247.424 74.7764C247.894 75.3364 248.424 76.0864 248.624 76.5964L247.904 76.9464C247.714 76.4364 247.214 75.6464 246.754 75.0764ZM241.694 76.0764C242.334 75.8464 243.294 75.4664 244.224 75.0864L244.394 75.7964C243.624 76.1664 242.814 76.5464 242.154 76.8364L241.694 76.0764ZM242.024 73.6264L242.654 73.1164C243.194 73.4064 243.894 73.8564 244.234 74.1764L243.574 74.7564C243.254 74.4264 242.574 73.9464 242.024 73.6264ZM247.904 75.5164L248.554 74.9864C249.284 75.3564 250.264 75.9264 250.764 76.3264L250.074 76.9164C249.614 76.5064 248.654 75.9064 247.904 75.5164Z" fill="#4C4949"/>
<path d="M118.194 1.34005C118.174 1.60005 118.164 1.90005 118.164 2.27005C118.164 2.72005 118.164 3.62005 118.164 4.04005C118.164 6.34005 117.794 7.19005 117.064 8.03005C116.414 8.78005 115.394 9.24005 114.664 9.48005L113.844 8.61005C114.794 8.38005 115.624 7.99005 116.234 7.31005C116.934 6.52005 117.064 5.73005 117.064 3.99005C117.064 3.55005 117.064 2.66005 117.064 2.27005C117.064 1.90005 117.044 1.60005 117.004 1.34005H118.194ZM113.554 1.42005C113.534 1.63005 113.524 1.89005 113.524 2.16005C113.524 2.52005 113.524 5.04005 113.524 5.52005C113.524 5.77005 113.534 6.13005 113.554 6.33005H112.404C112.424 6.16005 112.454 5.81005 112.454 5.51005C112.454 5.02005 112.454 2.52005 112.454 2.16005C112.454 1.98005 112.444 1.63005 112.414 1.42005H113.554ZM121.142 4.54005C121.472 4.57005 122.082 4.60005 122.632 4.60005C123.562 4.60005 127.252 4.60005 128.062 4.60005C128.552 4.60005 128.942 4.56005 129.182 4.54005V5.78005C128.962 5.77005 128.502 5.73005 128.072 5.73005C127.252 5.73005 123.562 5.73005 122.632 5.73005C122.072 5.73005 121.482 5.75005 121.142 5.78005V4.54005ZM132.342 1.95005C133.102 1.98005 134.632 1.95005 135.722 1.80005C136.672 1.67005 137.782 1.43005 138.272 1.21005L138.932 2.08005C138.662 2.15005 138.432 2.21005 138.282 2.25005C137.682 2.40005 136.812 2.56005 136.022 2.67005C134.892 2.82005 133.472 2.86005 132.592 2.88005L132.342 1.95005ZM132.842 8.80005C134.572 8.00005 135.402 6.72005 135.402 4.74005C135.402 4.74005 135.402 3.95005 135.402 2.56005L136.422 2.43005C136.422 3.25005 136.422 4.72005 136.422 4.72005C136.422 6.80005 135.742 8.37005 133.842 9.49005L132.842 8.80005ZM131.572 4.34005C131.822 4.36005 132.162 4.39005 132.472 4.39005C133.112 4.39005 138.442 4.39005 139.082 4.39005C139.302 4.39005 139.712 4.36005 139.922 4.34005V5.37005C139.682 5.35005 139.362 5.33005 139.102 5.33005C138.492 5.33005 133.092 5.33005 132.492 5.33005C132.172 5.33005 131.822 5.35005 131.572 5.37005V4.34005ZM141.574 5.85005H146.544V6.62005H141.574V5.85005ZM141.654 2.34005H146.514V3.10005H141.654V2.34005ZM143.404 5.05005L144.284 5.24005C143.814 6.24005 143.174 7.46005 142.714 8.25005L141.884 7.98005C142.344 7.22005 142.984 5.98005 143.404 5.05005ZM144.864 6.35005L145.744 6.44005C145.394 8.46005 144.344 9.36005 142.004 9.85005C141.944 9.59005 141.764 9.26005 141.604 9.07005C143.644 8.76005 144.554 8.02005 144.864 6.35005ZM145.534 0.720048L146.334 1.06005C146.024 1.51005 145.704 2.00005 145.434 2.32005L144.814 2.03005C145.054 1.68005 145.364 1.11005 145.534 0.720048ZM143.654 0.550049H144.524V5.18005H143.654V0.550049ZM141.974 1.06005L142.664 0.770049C142.944 1.16005 143.204 1.68005 143.304 2.04005L142.564 2.36005C142.484 2.01005 142.234 1.47005 141.974 1.06005ZM143.674 2.70005L144.294 3.07005C143.804 3.89005 142.854 4.77005 142.004 5.24005C141.894 5.03005 141.684 4.72005 141.504 4.54005C142.324 4.19005 143.234 3.43005 143.674 2.70005ZM144.434 3.02005C144.794 3.20005 145.984 3.93005 146.264 4.13005L145.754 4.80005C145.394 4.45005 144.414 3.70005 143.984 3.41005L144.434 3.02005ZM147.244 2.39005H150.854V3.27005H147.244V2.39005ZM147.434 0.550049L148.394 0.690049C148.064 2.70005 147.474 4.55005 146.574 5.74005C146.424 5.57005 146.034 5.23005 145.824 5.08005C146.664 4.04005 147.174 2.34005 147.434 0.550049ZM149.334 2.91005L150.304 3.01005C149.844 6.45005 148.794 8.59005 146.274 9.88005C146.174 9.65005 145.894 9.22005 145.714 9.02005C148.054 7.95005 148.974 6.00005 149.334 2.91005ZM147.764 3.13005C148.194 5.79005 149.114 8.06005 150.964 9.02005C150.744 9.21005 150.444 9.58005 150.304 9.84005C148.314 8.67005 147.404 6.28005 146.914 3.27005L147.764 3.13005ZM142.604 7.91005L143.104 7.27005C144.294 7.72005 145.544 8.40005 146.244 8.95005L145.584 9.62005C144.924 9.06005 143.744 8.38005 142.604 7.91005Z" fill="#4C4949"/>
<path d="M37.0248 180.484C37.0248 180.79 37.2768 181.042 37.5918 181.042C37.8978 181.042 38.1498 180.79 38.1498 180.484C38.1498 180.169 37.8978 179.917 37.5918 179.917C37.2768 179.917 37.0248 180.169 37.0248 180.484ZM36.5478 180.484C36.5478 179.908 37.0158 179.44 37.5918 179.44C38.1588 179.44 38.6268 179.908 38.6268 180.484C38.6268 181.051 38.1588 181.519 37.5918 181.519C37.0158 181.519 36.5478 181.051 36.5478 180.484ZM37.4658 181.132C37.3938 181.276 37.3488 181.474 37.3038 181.654C37.1058 182.572 36.6918 184.003 35.9538 184.957C35.1438 186.028 34.0098 186.883 32.3808 187.405L31.6068 186.55C33.3708 186.127 34.3878 185.353 35.1258 184.408C35.7468 183.625 36.1338 182.473 36.2508 181.645C35.7198 181.645 32.4168 181.645 31.8318 181.645C31.4448 181.645 31.0848 181.663 30.8598 181.681V180.673C31.1118 180.709 31.5348 180.745 31.8318 180.745C32.4168 180.745 35.7378 180.745 36.1968 180.745C36.3498 180.745 36.5748 180.736 36.7728 180.682L37.4658 181.132ZM40.6054 180.745C40.9654 180.754 41.2444 180.763 41.4694 180.763C42.0274 180.763 45.8254 180.763 46.3564 180.763C46.5634 180.763 46.8964 180.763 47.1934 180.745C47.1754 180.988 47.1754 181.276 47.1754 181.519C47.1754 181.996 47.1754 185.515 47.1754 185.947C47.1754 186.262 47.1844 187.036 47.1934 187.108H46.2124C46.2124 187.036 46.2304 186.442 46.2304 186.01C46.2304 185.596 46.2304 181.663 46.2304 181.663H41.5594C41.5594 181.663 41.5594 185.569 41.5594 186.01C41.5594 186.37 41.5684 187.018 41.5684 187.108H40.5964C40.5964 187.018 40.6234 186.307 40.6234 185.938C40.6234 185.497 40.6234 181.942 40.6234 181.519C40.6234 181.294 40.6234 180.979 40.6054 180.745ZM46.5904 185.704V186.604H41.0914V185.704H46.5904ZM56.356 181.015C56.284 181.168 56.23 181.366 56.194 181.546C55.996 182.464 55.573 183.886 54.844 184.849C54.025 185.911 52.9 186.775 51.271 187.288L50.497 186.442C52.261 186.01 53.269 185.236 54.016 184.3C54.637 183.508 55.015 182.356 55.141 181.537C54.61 181.537 51.298 181.537 50.713 181.537C50.335 181.537 49.975 181.555 49.741 181.564V180.565C50.002 180.592 50.425 180.628 50.722 180.628C51.298 180.628 54.628 180.628 55.078 180.628C55.231 180.628 55.456 180.619 55.663 180.574L56.356 181.015ZM57.8256 184.579C59.0046 184.309 60.3366 183.688 61.0566 183.247C61.9206 182.725 62.7846 181.951 63.2436 181.375L63.9456 182.059C63.4236 182.635 62.4156 183.445 61.4616 184.012C60.6876 184.471 59.3736 185.074 58.2486 185.416L57.8256 184.579ZM60.9666 183.787L61.9206 183.58V186.874C61.9206 187.171 61.9296 187.585 61.9746 187.747H60.9216C60.9396 187.585 60.9666 187.171 60.9666 186.874V183.787ZM66.0694 182.986C66.3664 183.013 66.9154 183.04 67.4104 183.04C68.2474 183.04 71.5684 183.04 72.2974 183.04C72.7384 183.04 73.0894 183.004 73.3054 182.986V184.102C73.1074 184.093 72.6934 184.057 72.3064 184.057C71.5684 184.057 68.2474 184.057 67.4104 184.057C66.9064 184.057 66.3754 184.075 66.0694 184.102V182.986ZM79.2214 186.811C79.2574 186.658 79.2934 186.442 79.2934 186.235C79.2934 185.794 79.2934 181.546 79.2934 180.907C79.2934 180.538 79.2394 180.241 79.2304 180.196H80.2834C80.2744 180.241 80.2294 180.547 80.2294 180.916C80.2294 181.546 80.2294 185.497 80.2294 185.893C81.0214 185.542 82.0294 184.768 82.6864 183.814L83.2264 184.597C82.4614 185.614 81.1924 186.559 80.1664 187.072C79.9954 187.162 79.8964 187.243 79.8244 187.306L79.2214 186.811ZM75.0814 186.73C75.8554 186.181 76.3684 185.371 76.6294 184.543C76.8904 183.742 76.8994 181.987 76.8994 180.943C76.8994 180.637 76.8724 180.421 76.8274 180.214H77.8714C77.8624 180.295 77.8174 180.619 77.8174 180.934C77.8174 181.96 77.7904 183.877 77.5474 184.786C77.2774 185.767 76.7014 186.649 75.9454 187.297L75.0814 186.73ZM92.4898 180.916C92.4088 181.015 92.2738 181.186 92.2018 181.303C91.8148 181.951 90.9598 183.103 89.9968 183.778L89.2498 183.184C90.0328 182.725 90.8158 181.825 91.0858 181.321C90.4918 181.321 86.6308 181.321 86.1448 181.321C85.7938 181.321 85.4698 181.339 85.0918 181.375V180.367C85.4158 180.421 85.7938 180.457 86.1448 180.457C86.6308 180.457 90.6628 180.457 91.1758 180.457C91.3828 180.457 91.7788 180.43 91.9318 180.385L92.4898 180.916ZM88.8628 182.113C88.8628 184.462 88.7188 186.19 86.3608 187.414L85.5238 186.739C85.7938 186.649 86.1088 186.496 86.3968 186.289C87.6838 185.461 87.8818 184.327 87.8818 182.833C87.8818 182.59 87.8728 182.374 87.8368 182.113H88.8628ZM100.857 181.393C100.776 181.537 100.668 181.762 100.614 181.942C100.371 182.806 99.8311 184.012 99.0301 185.002C98.1931 186.019 97.1131 186.847 95.4211 187.486L94.5931 186.739C96.3301 186.226 97.3921 185.425 98.2021 184.498C98.8591 183.724 99.3991 182.599 99.5701 181.843H96.3661L96.7081 181.033C97.0861 181.033 99.1651 181.033 99.4441 181.033C99.7051 181.033 99.9481 180.997 100.119 180.934L100.857 181.393ZM97.8781 179.998C97.7071 180.268 97.5091 180.619 97.4191 180.799C96.8521 181.834 95.8531 183.112 94.4761 184.039L93.6841 183.454C95.2411 182.509 96.0871 181.267 96.5011 180.475C96.6091 180.286 96.7711 179.926 96.8341 179.656L97.8781 179.998ZM104.744 185.83C104.744 185.038 104.744 181.915 104.744 180.898C104.744 180.619 104.726 180.25 104.681 179.98H105.743C105.707 180.25 105.671 180.619 105.671 180.898C105.671 181.906 105.671 184.642 105.671 185.587C105.671 186.181 105.878 186.379 106.913 186.379C107.912 186.379 108.839 186.271 109.73 186.091L109.694 187.063C108.92 187.171 107.939 187.252 106.886 187.252C105.05 187.252 104.744 186.793 104.744 185.83ZM110.162 181.834C110.09 181.942 109.982 182.122 109.91 182.257C109.505 183.004 108.749 184.174 108.056 184.876L107.273 184.408C107.912 183.832 108.542 182.914 108.803 182.401C108.407 182.482 103.853 183.391 102.746 183.634L102.575 182.698C103.754 182.554 108.2 181.672 108.938 181.492C109.154 181.447 109.352 181.384 109.487 181.312L110.162 181.834ZM118.507 180.952C118.444 181.033 118.309 181.267 118.246 181.411C117.886 182.284 117.202 183.535 116.446 184.39C115.438 185.533 114.124 186.622 112.711 187.279L111.982 186.514C113.431 185.965 114.79 184.876 115.681 183.886C116.284 183.202 116.896 182.212 117.112 181.51C116.77 181.51 114.142 181.51 113.8 181.51C113.458 181.51 112.963 181.555 112.828 181.564V180.547C112.999 180.574 113.53 180.601 113.8 180.601C114.205 180.601 116.779 180.601 117.148 180.601C117.481 180.601 117.769 180.565 117.931 180.511L118.507 180.952ZM116.563 183.805C117.517 184.588 118.75 185.884 119.353 186.622L118.552 187.315C117.895 186.433 116.869 185.317 115.906 184.453L116.563 183.805ZM124.656 179.413H125.529V180.673H124.656V179.413ZM124.656 184.606H125.529V187.783H124.656V184.606ZM121.083 185.254H129.165V186.037H121.083V185.254ZM121.371 180.358H128.904V181.141H121.371V180.358ZM128.112 181.321L128.859 181.699C128.4 182.122 127.842 182.536 127.41 182.824L126.789 182.473C127.212 182.167 127.788 181.69 128.112 181.321ZM124.539 180.934L125.268 181.213C124.917 181.681 124.512 182.185 124.188 182.518L123.648 182.275C123.945 181.906 124.323 181.33 124.539 180.934ZM125.871 181.609L126.537 181.924C125.808 182.797 124.827 183.832 124.053 184.471L123.549 184.183C124.323 183.517 125.295 182.419 125.871 181.609ZM123.234 182.311L123.639 181.825C124.152 182.131 124.845 182.599 125.178 182.923L124.746 183.481C124.431 183.148 123.756 182.653 123.234 182.311ZM123.135 183.922C124.017 183.895 125.34 183.832 126.645 183.769L126.636 184.381C125.421 184.48 124.188 184.57 123.252 184.633L123.135 183.922ZM125.574 183.202L126.177 182.932C126.6 183.436 127.077 184.111 127.257 184.57L126.609 184.885C126.438 184.426 125.988 183.715 125.574 183.202ZM121.02 184.102C121.596 183.895 122.46 183.553 123.297 183.211L123.45 183.85C122.757 184.183 122.028 184.525 121.434 184.786L121.02 184.102ZM121.317 181.897L121.884 181.438C122.37 181.699 123 182.104 123.306 182.392L122.712 182.914C122.424 182.617 121.812 182.185 121.317 181.897ZM126.609 183.598L127.194 183.121C127.851 183.454 128.733 183.967 129.183 184.327L128.562 184.858C128.148 184.489 127.284 183.949 126.609 183.598Z" fill="#4C4949"/>
<path d="M171.471 179.881C171.453 180.007 171.408 180.376 171.408 180.583C171.408 181.087 171.408 181.843 171.408 182.32C171.408 183.049 171.408 185.866 171.408 186.559C171.408 187.054 171.147 187.333 170.562 187.333C170.139 187.333 169.608 187.315 169.203 187.261L169.113 186.37C169.509 186.442 169.905 186.478 170.139 186.478C170.382 186.478 170.472 186.379 170.481 186.145C170.481 185.722 170.481 182.743 170.481 182.32C170.481 182.014 170.481 181.087 170.481 180.583C170.481 180.376 170.445 180.025 170.418 179.881H171.471ZM167.268 181.366C167.529 181.393 167.79 181.42 168.078 181.42C168.618 181.42 173.082 181.42 173.658 181.42C173.892 181.42 174.234 181.402 174.459 181.366V182.302C174.207 182.284 173.901 182.275 173.667 182.275C173.091 182.275 168.645 182.275 168.078 182.275C167.808 182.275 167.511 182.284 167.268 182.311V181.366ZM169.437 183.616C169.041 184.399 168.204 185.56 167.7 186.109L166.926 185.578C167.529 185.02 168.276 183.985 168.636 183.238L169.437 183.616ZM173.244 183.229C173.712 183.805 174.432 184.939 174.792 185.587L173.955 186.046C173.586 185.317 172.929 184.21 172.47 183.643L173.244 183.229ZM176.912 182.986C177.209 183.013 177.758 183.04 178.253 183.04C179.09 183.04 182.411 183.04 183.14 183.04C183.581 183.04 183.932 183.004 184.148 182.986V184.102C183.95 184.093 183.536 184.057 183.149 184.057C182.411 184.057 179.09 184.057 178.253 184.057C177.749 184.057 177.218 184.075 176.912 184.102V182.986ZM190.112 180.259C190.013 180.502 189.896 180.781 189.77 181.168C189.464 182.131 188.465 185.218 188.078 186.136L187.043 186.172C187.511 185.083 188.51 181.96 188.789 180.97C188.906 180.538 188.951 180.295 188.978 180.025L190.112 180.259ZM191.777 183.229C192.416 184.174 193.37 185.965 193.766 186.928L192.812 187.351C192.434 186.325 191.552 184.453 190.904 183.598L191.777 183.229ZM186.809 185.875C188.078 185.812 191.183 185.47 192.389 185.299L192.614 186.19C191.327 186.361 188.114 186.703 186.863 186.829C186.638 186.847 186.341 186.892 186.071 186.928L185.9 185.884C186.188 185.893 186.53 185.884 186.809 185.875ZM198.956 179.413H199.829V180.673H198.956V179.413ZM198.956 184.606H199.829V187.783H198.956V184.606ZM195.383 185.254H203.466V186.037H195.383V185.254ZM195.671 180.358H203.204V181.141H195.671V180.358ZM202.412 181.321L203.159 181.699C202.7 182.122 202.142 182.536 201.71 182.824L201.09 182.473C201.512 182.167 202.089 181.69 202.412 181.321ZM198.839 180.934L199.568 181.213C199.217 181.681 198.812 182.185 198.488 182.518L197.948 182.275C198.245 181.906 198.623 181.33 198.839 180.934ZM200.171 181.609L200.837 181.924C200.108 182.797 199.127 183.832 198.353 184.471L197.849 184.183C198.623 183.517 199.595 182.419 200.171 181.609ZM197.534 182.311L197.939 181.825C198.452 182.131 199.145 182.599 199.478 182.923L199.046 183.481C198.731 183.148 198.056 182.653 197.534 182.311ZM197.435 183.922C198.317 183.895 199.64 183.832 200.945 183.769L200.936 184.381C199.721 184.48 198.488 184.57 197.552 184.633L197.435 183.922ZM199.874 183.202L200.477 182.932C200.9 183.436 201.377 184.111 201.557 184.57L200.909 184.885C200.738 184.426 200.288 183.715 199.874 183.202ZM195.32 184.102C195.896 183.895 196.76 183.553 197.597 183.211L197.75 183.85C197.057 184.183 196.328 184.525 195.734 184.786L195.32 184.102ZM195.617 181.897L196.184 181.438C196.67 181.699 197.3 182.104 197.606 182.392L197.012 182.914C196.724 182.617 196.112 182.185 195.617 181.897ZM200.909 183.598L201.494 183.121C202.151 183.454 203.033 183.967 203.483 184.327L202.862 184.858C202.448 184.489 201.584 183.949 200.909 183.598Z" fill="#4C4949"/>
<path d="M47.5226 75.1177L130.818 14.6001L214.113 75.1177L182.297 173.037H79.3386L47.5226 75.1177Z" stroke="#E3E3E3" stroke-width="2"/>
<path d="M60.6876 79.4046L130.832 28.4419L200.976 79.4046L174.183 161.864H87.4804L60.6876 79.4046Z" stroke="#E3E3E3" stroke-width="2"/>
<path d="M76.0736 84.7838L131.395 44.5906L186.716 84.7838L165.585 149.818H97.2044L76.0736 84.7838Z" stroke="#E3E3E3" stroke-width="2"/>
<path d="M91.4037 89.3756L130.818 60.7393L170.232 89.3756L155.178 135.71H106.459L91.4037 89.3756Z" stroke="#E3E3E3" stroke-width="2"/>
<path d="M105.637 93.6108L130.241 75.7346L154.846 93.6108L145.448 122.535H115.035L105.637 93.6108Z" stroke="#E3E3E3" stroke-width="2"/>
<path d="M105.807 93.8676L131.186 29.01L186.076 85.0205L154.919 135.438L80.5881 171.765L105.807 93.8676Z" fill="#FBD881" fill-opacity="0.7" stroke="#F9D263" stroke-width="2"/>
</svg>
