<svg width="349" height="271" viewBox="0 0 349 271" fill="none" xmlns="http://www.w3.org/2000/svg">
<path d="M17.3332 92.8763C17.2343 93.0934 17.1601 93.3744 17.1106 93.6298C16.8386 94.9323 16.2574 96.9499 15.2557 98.3162C14.1304 99.823 12.5847 101.049 10.3464 101.777L9.2829 100.576C11.7067 99.9635 13.0917 98.8653 14.118 97.5373C14.9713 96.4135 15.4907 94.779 15.6638 93.617C14.9342 93.617 10.3835 93.617 9.57968 93.617C9.06031 93.617 8.56566 93.6425 8.24414 93.6553V92.2379C8.60276 92.2762 9.18397 92.3273 9.59205 92.3273C10.3835 92.3273 14.9589 92.3273 15.5772 92.3273C15.7875 92.3273 16.0966 92.3145 16.381 92.2506L17.3332 92.8763ZM25.8143 93.5021C25.7772 93.7958 25.7649 94.1405 25.7649 94.4598C25.802 95.8261 25.8638 99.3633 25.8885 101.279C25.9009 101.879 25.4681 102.262 24.8374 102.262C24.3057 102.262 23.5142 102.224 22.9949 102.198L22.9207 101.036C23.4277 101.113 24.046 101.151 24.3922 101.151C24.6272 101.151 24.7261 101.011 24.7261 100.768C24.7261 99.2867 24.6767 95.8261 24.6148 94.4598C24.6148 94.1788 24.5777 93.8213 24.5283 93.5021H25.8143ZM20.0765 95.3154C20.3732 95.3537 20.7813 95.3792 21.0905 95.3792C21.684 95.3792 26.9273 95.3792 27.4219 95.3792C27.7064 95.3792 28.1392 95.3409 28.337 95.3154V96.554C28.0897 96.5412 27.7187 96.5285 27.4714 96.5285C27.051 96.5285 21.5975 96.5285 21.1152 96.5285C20.769 96.5285 20.398 96.554 20.0765 96.5795V95.3154ZM19.6684 100.232C21.6593 99.2612 23.6503 97.4606 24.3551 96.1581L24.9858 96.1709L25.0105 97.1414C24.3551 98.3673 22.3395 100.244 20.5216 101.228L19.6684 100.232ZM31.44 92.4933C31.9346 92.506 32.318 92.5188 32.6271 92.5188C33.3938 92.5188 38.6123 92.5188 39.3419 92.5188C39.6264 92.5188 40.0839 92.5188 40.492 92.4933C40.4673 92.838 40.4673 93.2467 40.4673 93.5914C40.4673 94.2682 40.4673 99.2612 40.4673 99.8741C40.4673 100.321 40.4796 101.419 40.492 101.521H39.1441C39.1441 101.419 39.1688 100.576 39.1688 99.9635C39.1688 99.3761 39.1688 93.7958 39.1688 93.7958H32.7508C32.7508 93.7958 32.7508 99.3378 32.7508 99.9635C32.7508 100.474 32.7631 101.394 32.7631 101.521H31.4276C31.4276 101.394 31.4647 100.385 31.4647 99.8613C31.4647 99.2356 31.4647 94.1916 31.4647 93.5914C31.4647 93.2722 31.4647 92.8253 31.44 92.4933ZM39.6635 99.5293V100.806H32.1077V99.5293H39.6635ZM53.6894 92.838C53.6276 92.9913 53.5286 93.3999 53.5039 93.5531C53.2813 94.9833 53.0093 96.8222 52.0818 98.3034C51.0678 99.9507 49.386 101.24 47.395 101.93L46.3192 100.806C48.0752 100.334 49.9054 99.2484 50.8947 97.6267C51.5624 96.5412 51.9334 94.9961 52.0571 93.5531C51.3151 93.5531 46.5047 93.5531 45.6143 93.5531C45.6143 93.9235 45.6143 95.4686 45.6143 95.9155C45.6143 96.1071 45.6267 96.4902 45.6514 96.8349H44.2293C44.2664 96.4902 44.2788 96.2092 44.2788 95.9155C44.2788 95.4686 44.2788 93.7702 44.2788 93.2084C44.2788 92.8891 44.2664 92.5571 44.2293 92.2634C44.5879 92.2889 45.0826 92.3017 45.639 92.3017C46.0842 92.3017 51.0183 92.3017 51.7974 92.3017C52.1313 92.3017 52.4775 92.2762 52.7496 92.2251L53.6894 92.838ZM56.5568 95.6729C56.9649 95.7112 57.7193 95.7495 58.3994 95.7495C59.5494 95.7495 64.1126 95.7495 65.1142 95.7495C65.7201 95.7495 66.2024 95.6984 66.4992 95.6729V97.2563C66.2272 97.2436 65.6583 97.1925 65.1266 97.1925C64.1125 97.1925 59.5494 97.1925 58.3994 97.1925C57.7069 97.1925 56.9773 97.218 56.5568 97.2563V95.6729ZM24.3154 111.412H29.2001V112.561H24.3154V111.412ZM23.8084 115.052H29.6452V116.188H23.8084V115.052ZM25.4778 115.664L26.7392 115.907C26.4053 117.695 25.9107 119.853 25.4902 121.206L24.4391 120.964C24.8472 119.572 25.28 117.312 25.4778 115.664ZM23.4869 120.772C24.8472 120.683 26.9618 120.53 29.0022 120.376V121.462C27.1225 121.653 25.1316 121.832 23.6971 121.96L23.4869 120.772ZM27.2709 118.218L28.2726 117.797C28.9527 119.074 29.5463 120.734 29.7813 121.845L28.693 122.292C28.5075 121.181 27.914 119.495 27.2709 118.218ZM18.3797 111.77H23.7218V112.817H18.3797V111.77ZM18.2066 119.1H23.8455V120.172H18.2066V119.1ZM20.519 110.467H21.6196V114.081H20.519V110.467ZM20.6303 114.081H21.5083V117.72H21.6072V122.305H20.519V117.72H20.6303V114.081ZM19.5792 116.341V117.337H22.5965V116.341H19.5792ZM19.5792 114.541V115.524H22.5965V114.541H19.5792ZM18.6641 113.672H23.5487V118.206H18.6641V113.672ZM37.6461 110.442L38.7467 110.62C38.2273 111.949 37.4235 113.289 36.0633 114.362C35.8901 114.107 35.5315 113.762 35.2842 113.609C36.5084 112.727 37.2751 111.502 37.6461 110.442ZM37.8193 111.412H40.379V112.357H37.2628L37.8193 111.412ZM38.1408 114.132H39.0064C38.9198 115.447 38.6354 116.316 37.5225 116.839C37.4235 116.622 37.1762 116.316 37.0031 116.175C37.8811 115.792 38.1037 115.166 38.1408 114.132ZM39.6742 114.17H40.5522V115.447C40.5522 115.664 40.5769 115.69 40.7995 115.69C40.8984 115.69 41.3436 115.69 41.4673 115.69C41.628 115.69 41.6775 115.664 41.7022 115.575C41.863 115.703 42.2092 115.818 42.4566 115.869C42.37 116.328 42.1103 116.482 41.6033 116.482C41.4425 116.482 40.8242 116.482 40.6758 116.482C39.8597 116.482 39.6742 116.265 39.6742 115.447V114.17ZM35.4944 118.129H43.1491V119.151H35.4944V118.129ZM39.9091 118.474C40.379 119.993 41.4673 120.938 43.3346 121.27C43.0872 121.5 42.8028 121.973 42.6668 122.279C40.5645 121.781 39.4516 120.594 38.8951 118.601L39.9091 118.474ZM37.1144 113.468H41.9743V114.439H37.1144V117.695H36.1251V113.468H37.1144ZM41.6899 113.468H42.7039V117.669H41.6899V113.468ZM39.9957 111.412H40.2307L40.4038 111.361L41.1457 111.846C40.7995 112.625 40.243 113.557 39.7978 114.158C39.5876 114.004 39.2414 113.787 39.0064 113.66C39.3774 113.098 39.7978 112.191 39.9957 111.616V111.412ZM38.7838 117.031H39.8597C39.6494 119.878 39.0188 121.526 35.5933 122.343C35.4944 122.062 35.2224 121.641 35.0121 121.411C38.1531 120.76 38.623 119.432 38.7838 117.031ZM31.6609 116.993C32.6378 116.737 34.097 116.29 35.4944 115.856L35.6552 116.954C34.3691 117.388 33.0088 117.823 31.9453 118.155L31.6609 116.993ZM31.8464 112.97H35.6181V114.081H31.8464V112.97ZM33.2932 110.467H34.3691V120.977C34.3691 121.59 34.2578 121.909 33.9116 122.088C33.59 122.279 33.083 122.317 32.2916 122.317C32.2545 122.024 32.1185 121.526 31.9701 121.194C32.4771 121.219 32.9346 121.219 33.083 121.206C33.2314 121.206 33.2932 121.155 33.2932 120.977V110.467ZM50.5069 110.467H51.7064V112.255H50.5069V110.467ZM50.5069 117.835H51.7064V122.343H50.5069V117.835ZM45.5976 118.755H56.7023V119.866H45.5976V118.755ZM45.9933 111.808H56.3437V112.919H45.9933V111.808ZM55.2555 113.174L56.2819 113.711C55.6512 114.311 54.8845 114.898 54.2909 115.307L53.4377 114.809C54.0189 114.375 54.8103 113.698 55.2555 113.174ZM50.3462 112.625L51.3478 113.021C50.8655 113.685 50.3091 114.4 49.8639 114.873L49.1219 114.528C49.53 114.004 50.0494 113.187 50.3462 112.625ZM52.1763 113.583L53.0914 114.03C52.0898 115.269 50.7419 116.737 49.6784 117.644L48.9859 117.235C50.0494 116.29 51.3849 114.732 52.1763 113.583ZM48.5531 114.579L49.1095 113.889C49.8144 114.324 50.7666 114.988 51.2241 115.447L50.6306 116.239C50.1978 115.767 49.2703 115.064 48.5531 114.579ZM48.417 116.865C49.6289 116.827 51.4467 116.737 53.2398 116.648L53.2275 117.516C51.558 117.657 49.8639 117.784 48.5778 117.874L48.417 116.865ZM51.7683 115.843L52.5968 115.46C53.178 116.175 53.8334 117.133 54.0807 117.784L53.1904 118.231C52.9554 117.58 52.3371 116.571 51.7683 115.843ZM45.511 117.12C46.3024 116.827 47.4896 116.341 48.6396 115.856L48.8498 116.763C47.8977 117.235 46.896 117.72 46.0798 118.091L45.511 117.12ZM45.9191 113.992L46.6981 113.34C47.3659 113.711 48.2315 114.285 48.652 114.694L47.8358 115.435C47.4401 115.013 46.5992 114.4 45.9191 113.992ZM53.1904 116.405L53.9942 115.728C54.8969 116.201 56.1088 116.929 56.7271 117.439L55.8738 118.193C55.305 117.669 54.1178 116.903 53.1904 116.405Z" fill="#4C4949" fill-opacity="0.75"/>
<path d="M309.379 105.472H310.684V113.716H309.379V105.472ZM305.532 107.43H314.408V108.65H305.532V107.43ZM310.986 107.941C311.783 109.572 313.322 111.233 314.792 112.084C314.504 112.339 314.092 112.822 313.872 113.148C312.388 112.126 310.877 110.211 309.997 108.324L310.986 107.941ZM309.145 107.841L310.162 108.225C309.255 110.197 307.634 112.098 305.999 113.12C305.793 112.793 305.38 112.311 305.092 112.055C306.686 111.218 308.307 109.53 309.145 107.841ZM307.744 102.379V104.677H312.388V102.379H307.744ZM306.507 101.187H313.693V105.869H306.507V101.187ZM304.927 100.577L306.136 100.974C305.216 103.372 303.759 105.827 302.248 107.416C302.124 107.104 301.767 106.38 301.533 106.068C302.866 104.748 304.158 102.677 304.927 100.577ZM303.539 104.351L304.762 103.074L304.776 103.088V113.673H303.539V104.351ZM321.058 108.693H329.549V109.941H321.058V108.693ZM322.171 105.061H327.653V106.281H322.171V105.061ZM324.754 107.43H326.059V112.212C326.059 112.935 325.936 113.304 325.414 113.503C324.905 113.701 324.122 113.701 322.968 113.701C322.913 113.318 322.748 112.793 322.583 112.424C323.408 112.453 324.218 112.453 324.452 112.439C324.685 112.424 324.754 112.382 324.754 112.183V107.43ZM327.323 105.061H327.653L327.914 104.99L328.739 105.642C327.914 106.621 326.733 107.7 325.688 108.381C325.524 108.139 325.18 107.771 324.974 107.6C325.84 107.019 326.856 106.011 327.323 105.316V105.061ZM317.183 102.393H329.316V103.684H317.183V102.393ZM321.553 100.534L322.927 100.875C321.937 104.223 320.247 107.6 317.403 109.658C317.266 109.289 316.95 108.693 316.73 108.366C319.231 106.607 320.811 103.443 321.553 100.534ZM318.846 106.38H320.151V113.687H318.846V106.38ZM337.642 100.549H338.975V102.535H337.642V100.549ZM337.642 108.735H338.975V113.744H337.642V108.735ZM332.188 109.757H344.526V110.991H332.188V109.757ZM332.627 102.038H344.128V103.273H332.627V102.038ZM342.919 103.557L344.059 104.152C343.358 104.819 342.506 105.472 341.847 105.926L340.899 105.373C341.545 104.89 342.424 104.138 342.919 103.557ZM337.464 102.946L338.577 103.386C338.041 104.124 337.423 104.919 336.928 105.444L336.103 105.061C336.557 104.479 337.134 103.571 337.464 102.946ZM339.497 104.011L340.514 104.507C339.401 105.883 337.903 107.515 336.722 108.523L335.952 108.069C337.134 107.019 338.618 105.288 339.497 104.011ZM335.471 105.117L336.09 104.351C336.873 104.834 337.931 105.571 338.439 106.082L337.78 106.962C337.299 106.437 336.268 105.656 335.471 105.117ZM335.32 107.657C336.667 107.614 338.687 107.515 340.679 107.416L340.665 108.381C338.81 108.537 336.928 108.679 335.499 108.778L335.32 107.657ZM339.044 106.522L339.964 106.096C340.61 106.891 341.338 107.955 341.613 108.679L340.624 109.175C340.363 108.452 339.676 107.331 339.044 106.522ZM332.091 107.941C332.971 107.614 334.29 107.075 335.568 106.536L335.801 107.544C334.743 108.069 333.63 108.608 332.723 109.019L332.091 107.941ZM332.545 104.465L333.41 103.741C334.152 104.152 335.114 104.791 335.581 105.245L334.674 106.068C334.235 105.6 333.3 104.919 332.545 104.465ZM340.624 107.146L341.517 106.394C342.52 106.919 343.867 107.728 344.554 108.296L343.606 109.133C342.974 108.551 341.654 107.7 340.624 107.146Z" fill="#4C4949" fill-opacity="0.75"/>
<path d="M162.4 1.90116C162.373 2.27006 162.359 2.69572 162.359 3.22069C162.359 3.85917 162.359 5.13614 162.359 5.73205C162.359 8.9954 161.851 10.2014 160.848 11.3933C159.955 12.4574 158.553 13.1101 157.55 13.4506L156.423 12.2162C157.729 11.8899 158.869 11.3365 159.707 10.3717C160.669 9.2508 160.848 8.12991 160.848 5.66111C160.848 5.03682 160.848 3.77404 160.848 3.22069C160.848 2.69572 160.82 2.27006 160.765 1.90116H162.4ZM156.025 2.01467C155.997 2.31263 155.984 2.68153 155.984 3.06462C155.984 3.5754 155.984 7.1509 155.984 7.83195C155.984 8.18666 155.997 8.69745 156.025 8.98122H154.445C154.472 8.74001 154.514 8.24341 154.514 7.81776C154.514 7.12252 154.514 3.5754 154.514 3.06462C154.514 2.80923 154.5 2.31263 154.459 2.01467H156.025ZM166.451 6.44148C166.904 6.48404 167.743 6.52661 168.498 6.52661C169.776 6.52661 174.846 6.52661 175.959 6.52661C176.632 6.52661 177.168 6.46985 177.498 6.44148V8.20085C177.196 8.18666 176.564 8.12991 175.973 8.12991C174.846 8.12991 169.776 8.12991 168.498 8.12991C167.729 8.12991 166.918 8.15828 166.451 8.20085V6.44148ZM181.84 2.76666C182.884 2.80923 184.986 2.76666 186.484 2.55383C187.789 2.36938 189.315 2.02886 189.988 1.71671L190.895 2.95111C190.524 3.05043 190.208 3.13556 190.002 3.19232C189.177 3.40514 187.982 3.63216 186.896 3.78823C185.344 4.00106 183.393 4.05781 182.183 4.08619L181.84 2.76666ZM182.527 12.4858C184.904 11.3507 186.044 9.53457 186.044 6.72525C186.044 6.72525 186.044 5.60436 186.044 3.63216L187.446 3.44771C187.446 4.61116 187.446 6.69687 187.446 6.69687C187.446 9.64807 186.512 11.8757 183.901 13.4648L182.527 12.4858ZM180.782 6.15771C181.125 6.18609 181.593 6.22865 182.019 6.22865C182.898 6.22865 190.221 6.22865 191.101 6.22865C191.403 6.22865 191.966 6.18609 192.255 6.15771V7.61912C191.925 7.59074 191.486 7.56237 191.128 7.56237C190.29 7.56237 182.87 7.56237 182.046 7.56237C181.606 7.56237 181.125 7.59074 180.782 7.61912V6.15771ZM194.525 8.30017H201.354V9.39268H194.525V8.30017ZM194.635 3.32001H201.313V4.39834H194.635V3.32001ZM197.039 7.16509L198.248 7.43467C197.603 8.85352 196.723 10.5845 196.091 11.7054L194.951 11.3223C195.583 10.244 196.462 8.48462 197.039 7.16509ZM199.045 9.00959L200.255 9.13729C199.774 12.0034 198.331 13.2803 195.116 13.9756C195.033 13.6067 194.786 13.1384 194.566 12.8689C197.369 12.429 198.619 11.3791 199.045 9.00959ZM199.966 1.02148L201.065 1.50389C200.639 2.14237 200.2 2.8376 199.829 3.29163L198.977 2.88017C199.306 2.38357 199.732 1.57483 199.966 1.02148ZM197.383 0.780273H198.578V7.34954H197.383V0.780273ZM195.074 1.50389L196.023 1.09242C196.407 1.64577 196.765 2.38357 196.902 2.89436L195.885 3.34839C195.775 2.85179 195.432 2.08561 195.074 1.50389ZM197.41 3.8308L198.262 4.35577C197.589 5.51923 196.284 6.76781 195.116 7.43467C194.965 7.13671 194.676 6.69687 194.429 6.44148C195.555 5.94488 196.806 4.86656 197.41 3.8308ZM198.455 4.28483C198.949 4.54022 200.584 5.57598 200.969 5.85975L200.268 6.81038C199.774 6.31378 198.427 5.24965 197.836 4.83818L198.455 4.28483ZM202.316 3.39095H207.276V4.63954H202.316V3.39095ZM202.577 0.780273L203.896 0.978912C203.442 3.8308 202.632 6.45567 201.395 8.14409C201.189 7.90289 200.653 7.42048 200.364 7.20766C201.519 5.73205 202.219 3.32001 202.577 0.780273ZM205.187 4.12876L206.52 4.27064C205.888 9.15148 204.445 12.1878 200.983 14.0181C200.845 13.6918 200.461 13.0817 200.213 12.7979C203.428 11.2798 204.693 8.513 205.187 4.12876ZM203.03 4.4409C203.621 8.21504 204.885 11.4358 207.427 12.7979C207.125 13.0675 206.712 13.5925 206.52 13.9614C203.786 12.3013 202.535 8.91027 201.862 4.63954L203.03 4.4409ZM195.94 11.223L196.627 10.3149C198.262 10.9534 199.98 11.9182 200.942 12.6986L200.035 13.6492C199.128 12.8547 197.506 11.8899 195.94 11.223Z" fill="#4C4949" fill-opacity="0.75"/>
<path d="M50.8727 256.079C50.8727 256.514 51.2189 256.871 51.6517 256.871C52.0722 256.871 52.4184 256.514 52.4184 256.079C52.4184 255.632 52.0722 255.275 51.6517 255.275C51.2189 255.275 50.8727 255.632 50.8727 256.079ZM50.2173 256.079C50.2173 255.262 50.8603 254.598 51.6517 254.598C52.4308 254.598 53.0738 255.262 53.0738 256.079C53.0738 256.884 52.4308 257.548 51.6517 257.548C50.8603 257.548 50.2173 256.884 50.2173 256.079ZM51.4786 256.999C51.3797 257.203 51.3178 257.484 51.256 257.739C50.984 259.042 50.4151 261.072 49.4011 262.426C48.2881 263.946 46.73 265.159 44.4917 265.899L43.4282 264.686C45.852 264.086 47.2494 262.988 48.2634 261.647C49.1167 260.536 49.6484 258.902 49.8092 257.727C49.0796 257.727 44.5412 257.727 43.7374 257.727C43.2057 257.727 42.711 257.752 42.4019 257.778V256.348C42.7481 256.399 43.3293 256.45 43.7374 256.45C44.5412 256.45 49.1043 256.45 49.735 256.45C49.9452 256.45 50.2544 256.437 50.5264 256.36L51.4786 256.999ZM55.7925 256.45C56.2871 256.462 56.6705 256.475 56.9796 256.475C57.7463 256.475 62.9648 256.475 63.6944 256.475C63.9788 256.475 64.4364 256.475 64.8445 256.45C64.8197 256.795 64.8197 257.203 64.8197 257.548C64.8197 258.225 64.8197 263.218 64.8197 263.831C64.8197 264.278 64.8321 265.376 64.8445 265.478H63.4966C63.4966 265.376 63.5213 264.533 63.5213 263.92C63.5213 263.333 63.5213 257.752 63.5213 257.752H57.1033C57.1033 257.752 57.1033 263.294 57.1033 263.92C57.1033 264.431 57.1156 265.35 57.1156 265.478H55.7801C55.7801 265.35 55.8172 264.341 55.8172 263.818C55.8172 263.192 55.8172 258.148 55.8172 257.548C55.8172 257.229 55.8172 256.782 55.7925 256.45ZM64.0159 263.486V264.763H56.4602V263.486H64.0159ZM77.434 256.833C77.3351 257.05 77.2609 257.331 77.2114 257.586C76.9394 258.889 76.3582 260.906 75.3565 262.273C74.2312 263.779 72.6854 265.005 70.4472 265.733L69.3837 264.533C71.8074 263.92 73.1924 262.822 74.2188 261.494C75.0721 260.37 75.5915 258.735 75.7646 257.573C75.035 257.573 70.4843 257.573 69.6805 257.573C69.1611 257.573 68.6664 257.599 68.3449 257.612V256.194C68.7035 256.233 69.2847 256.284 69.6928 256.284C70.4843 256.284 75.0597 256.284 75.678 256.284C75.8883 256.284 76.1974 256.271 76.4818 256.207L77.434 256.833ZM79.4533 261.89C81.0733 261.506 82.9034 260.625 83.8927 260C85.0799 259.259 86.267 258.161 86.8977 257.344L87.8623 258.314C87.145 259.131 85.76 260.281 84.4492 261.085C83.3857 261.736 81.5803 262.592 80.0345 263.077L79.4533 261.89ZM83.7691 260.766L85.0799 260.472V265.146C85.0799 265.567 85.0923 266.155 85.1541 266.384H83.7072C83.732 266.155 83.7691 265.567 83.7691 265.146V260.766ZM90.7804 259.629C91.1885 259.668 91.9428 259.706 92.623 259.706C93.773 259.706 98.3361 259.706 99.3378 259.706C99.9437 259.706 100.426 259.655 100.723 259.629V261.213C100.451 261.2 99.8819 261.149 99.3501 261.149C98.3361 261.149 93.773 261.149 92.623 261.149C91.9305 261.149 91.2008 261.174 90.7804 261.213V259.629ZM108.851 265.056C108.901 264.839 108.95 264.533 108.95 264.239C108.95 263.613 108.95 257.586 108.95 256.68C108.95 256.156 108.876 255.735 108.864 255.671H110.311C110.298 255.735 110.236 256.169 110.236 256.692C110.236 257.586 110.236 263.192 110.236 263.754C111.325 263.256 112.71 262.158 113.612 260.804L114.354 261.915C113.303 263.358 111.56 264.699 110.15 265.427C109.915 265.554 109.779 265.669 109.68 265.759L108.851 265.056ZM103.163 264.942C104.227 264.163 104.931 263.013 105.29 261.839C105.649 260.702 105.661 258.212 105.661 256.731C105.661 256.296 105.624 255.99 105.562 255.696H106.997C106.984 255.811 106.922 256.271 106.922 256.718C106.922 258.174 106.885 260.894 106.551 262.183C106.18 263.575 105.389 264.827 104.35 265.746L103.163 264.942ZM127.082 256.692C126.971 256.833 126.786 257.075 126.687 257.241C126.155 258.161 124.98 259.795 123.657 260.753L122.631 259.91C123.706 259.259 124.782 257.982 125.153 257.267C124.337 257.267 119.032 257.267 118.364 257.267C117.882 257.267 117.437 257.293 116.917 257.344V255.913C117.363 255.99 117.882 256.041 118.364 256.041C119.032 256.041 124.572 256.041 125.277 256.041C125.561 256.041 126.106 256.003 126.316 255.939L127.082 256.692ZM122.099 258.391C122.099 261.724 121.901 264.175 118.661 265.912L117.511 264.954C117.882 264.827 118.315 264.61 118.711 264.316C120.479 263.141 120.751 261.532 120.751 259.412C120.751 259.067 120.739 258.761 120.689 258.391H122.099ZM138.579 257.369C138.468 257.573 138.319 257.893 138.245 258.148C137.911 259.374 137.17 261.085 136.069 262.49C134.919 263.933 133.435 265.108 131.11 266.014L129.972 264.954C132.359 264.226 133.818 263.09 134.931 261.775C135.834 260.676 136.576 259.08 136.811 258.008H132.409L132.878 256.858C133.398 256.858 136.254 256.858 136.638 256.858C136.996 256.858 137.33 256.807 137.565 256.718L138.579 257.369ZM134.486 255.39C134.251 255.773 133.979 256.271 133.855 256.526C133.076 257.995 131.704 259.808 129.812 261.123L128.723 260.293C130.863 258.953 132.025 257.19 132.594 256.067C132.742 255.798 132.965 255.288 133.052 254.905L134.486 255.39ZM143.92 263.665C143.92 262.541 143.92 258.11 143.92 256.667C143.92 256.271 143.895 255.747 143.833 255.364H145.293C145.243 255.747 145.194 256.271 145.194 256.667C145.194 258.097 145.194 261.979 145.194 263.32C145.194 264.163 145.478 264.444 146.9 264.444C148.273 264.444 149.547 264.29 150.771 264.035L150.721 265.414C149.658 265.567 148.31 265.682 146.863 265.682C144.34 265.682 143.92 265.031 143.92 263.665ZM151.364 257.995C151.265 258.148 151.117 258.403 151.018 258.595C150.462 259.655 149.423 261.315 148.471 262.311L147.395 261.647C148.273 260.83 149.138 259.527 149.497 258.799C148.953 258.914 142.696 260.204 141.175 260.549L140.94 259.221C142.56 259.016 148.669 257.765 149.683 257.51C149.979 257.446 150.251 257.356 150.437 257.254L151.364 257.995ZM162.83 256.743C162.744 256.858 162.558 257.19 162.472 257.395C161.977 258.633 161.037 260.408 159.999 261.621C158.614 263.243 156.808 264.788 154.867 265.72L153.865 264.635C155.856 263.856 157.723 262.311 158.948 260.906C159.776 259.936 160.617 258.531 160.914 257.535C160.444 257.535 156.833 257.535 156.363 257.535C155.893 257.535 155.213 257.599 155.027 257.612V256.169C155.262 256.207 155.992 256.245 156.363 256.245C156.919 256.245 160.456 256.245 160.963 256.245C161.421 256.245 161.816 256.194 162.039 256.118L162.83 256.743ZM160.159 260.791C161.47 261.902 163.164 263.741 163.993 264.788L162.892 265.772C161.99 264.52 160.58 262.937 159.257 261.711L160.159 260.791ZM171.279 254.56H172.479V256.348H171.279V254.56ZM171.279 261.928H172.479V266.436H171.279V261.928ZM166.37 262.847H177.475V263.958H166.37V262.847ZM166.766 255.901H177.116V257.012H166.766V255.901ZM176.028 257.267L177.054 257.803C176.424 258.403 175.657 258.991 175.063 259.4L174.21 258.902C174.791 258.467 175.583 257.791 176.028 257.267ZM171.119 256.718L172.12 257.114C171.638 257.778 171.081 258.493 170.636 258.965L169.894 258.621C170.302 258.097 170.822 257.28 171.119 256.718ZM172.949 257.676L173.864 258.123C172.862 259.361 171.514 260.83 170.451 261.736L169.758 261.328C170.822 260.383 172.157 258.825 172.949 257.676ZM169.325 258.672L169.882 257.982C170.587 258.416 171.539 259.08 171.997 259.54L171.403 260.332C170.97 259.859 170.043 259.157 169.325 258.672ZM169.189 260.957C170.401 260.919 172.219 260.83 174.012 260.74L174 261.609C172.33 261.749 170.636 261.877 169.35 261.966L169.189 260.957ZM172.541 259.936L173.369 259.553C173.95 260.268 174.606 261.226 174.853 261.877L173.963 262.324C173.728 261.673 173.109 260.664 172.541 259.936ZM166.283 261.213C167.075 260.919 168.262 260.434 169.412 259.949L169.622 260.855C168.67 261.328 167.668 261.813 166.852 262.183L166.283 261.213ZM166.691 258.084L167.471 257.433C168.138 257.803 169.004 258.378 169.424 258.787L168.608 259.527C168.213 259.106 167.372 258.493 166.691 258.084ZM173.963 260.498L174.767 259.821C175.669 260.293 176.881 261.021 177.499 261.532L176.646 262.285C176.077 261.762 174.89 260.996 173.963 260.498Z" fill="#4C4949" fill-opacity="0.75"/>
<path d="M235.604 255.224C235.579 255.403 235.517 255.926 235.517 256.22C235.517 256.935 235.517 258.008 235.517 258.684C235.517 259.719 235.517 263.716 235.517 264.699C235.517 265.401 235.159 265.797 234.355 265.797C233.774 265.797 233.044 265.772 232.488 265.695L232.364 264.431C232.908 264.533 233.452 264.584 233.774 264.584C234.108 264.584 234.231 264.444 234.244 264.112C234.244 263.511 234.244 259.285 234.244 258.684C234.244 258.25 234.244 256.935 234.244 256.22C234.244 255.926 234.194 255.428 234.157 255.224H235.604ZM229.829 257.331C230.187 257.369 230.546 257.407 230.942 257.407C231.684 257.407 237.817 257.407 238.609 257.407C238.93 257.407 239.4 257.382 239.709 257.331V258.659C239.363 258.633 238.943 258.621 238.621 258.621C237.83 258.621 231.721 258.621 230.942 258.621C230.571 258.621 230.163 258.633 229.829 258.672V257.331ZM232.809 260.523C232.265 261.634 231.115 263.281 230.422 264.06L229.359 263.307C230.187 262.515 231.214 261.047 231.708 259.987L232.809 260.523ZM238.04 259.974C238.683 260.791 239.672 262.4 240.167 263.32L239.017 263.971C238.51 262.937 237.607 261.366 236.976 260.562L238.04 259.974ZM243.08 259.629C243.488 259.668 244.242 259.706 244.922 259.706C246.072 259.706 250.636 259.706 251.637 259.706C252.243 259.706 252.725 259.655 253.022 259.629V261.213C252.75 261.2 252.181 261.149 251.65 261.149C250.636 261.149 246.072 261.149 244.922 261.149C244.23 261.149 243.5 261.174 243.08 261.213V259.629ZM261.217 255.76C261.081 256.105 260.92 256.501 260.747 257.05C260.326 258.416 258.954 262.796 258.422 264.099L257 264.15C257.643 262.605 259.016 258.174 259.399 256.769C259.56 256.156 259.622 255.811 259.659 255.428L261.217 255.76ZM263.505 259.974C264.383 261.315 265.693 263.856 266.237 265.222L264.927 265.823C264.407 264.367 263.195 261.711 262.305 260.498L263.505 259.974ZM256.678 263.728C258.422 263.639 262.688 263.154 264.345 262.911L264.655 264.175C262.886 264.418 258.472 264.903 256.753 265.082C256.444 265.108 256.035 265.171 255.664 265.222L255.429 263.741C255.825 263.754 256.295 263.741 256.678 263.728ZM273.369 254.56H274.568V256.348H273.369V254.56ZM273.369 261.928H274.568V266.436H273.369V261.928ZM268.459 262.847H279.565V263.958H268.459V262.847ZM268.855 255.901H279.205V257.012H268.855V255.901ZM278.117 257.267L279.144 257.803C278.513 258.403 277.746 258.991 277.153 259.4L276.301 258.902C276.881 258.467 277.673 257.791 278.117 257.267ZM273.208 256.718L274.21 257.114C273.727 257.778 273.171 258.493 272.726 258.965L271.984 258.621C272.392 258.097 272.911 257.28 273.208 256.718ZM275.038 257.676L275.953 258.123C274.951 259.361 273.604 260.83 272.54 261.736L271.848 261.328C272.911 260.383 274.247 258.825 275.038 257.676ZM271.415 258.672L271.971 257.982C272.676 258.416 273.628 259.08 274.086 259.54L273.492 260.332C273.059 259.859 272.132 259.157 271.415 258.672ZM271.279 260.957C272.491 260.919 274.308 260.83 276.102 260.74L276.089 261.609C274.42 261.749 272.726 261.877 271.44 261.966L271.279 260.957ZM274.63 259.936L275.459 259.553C276.04 260.268 276.695 261.226 276.942 261.877L276.052 262.324C275.817 261.673 275.199 260.664 274.63 259.936ZM268.373 261.213C269.164 260.919 270.351 260.434 271.501 259.949L271.712 260.855C270.759 261.328 269.758 261.813 268.942 262.183L268.373 261.213ZM268.781 258.084L269.56 257.433C270.228 257.803 271.093 258.378 271.514 258.787L270.698 259.527C270.302 259.106 269.461 258.493 268.781 258.084ZM276.052 260.498L276.856 259.821C277.759 260.293 278.97 261.021 279.589 261.532L278.736 262.285C278.167 261.762 276.98 260.996 276.052 260.498Z" fill="#4C4949" fill-opacity="0.75"/>
<path d="M65.2968 106.581L179.746 20.7153L294.195 106.581L250.479 245.513H109.012L65.2968 106.581Z" stroke="#E3E3E3"/>
<path d="M83.3857 112.663L179.765 40.3547L276.144 112.663L239.33 229.66H120.199L83.3857 112.663Z" stroke="#E3E3E3"/>
<path d="M104.526 120.295L180.539 63.2673L256.551 120.295L227.516 212.569H133.56L104.526 120.295Z" stroke="#E3E3E3"/>
<path d="M125.59 126.81L179.746 86.1797L233.901 126.81L213.217 192.552H146.276L125.59 126.81Z" stroke="#E3E3E3"/>
<path d="M145.147 132.819L178.953 107.456L212.761 132.819L199.848 173.858H158.06L145.147 132.819Z" stroke="#E3E3E3"/>
<path d="M145.381 133.184L180.252 41.1606L255.671 120.631L212.861 192.166L110.729 243.708L145.381 133.184Z" fill="#FBD881" fill-opacity="0.7" stroke="#F9D263"/>
</svg>
